<?xml version="1.0" encoding="UTF-8" standalone="no"?>
<svg viewBox="0 0 407.41135 204.90465" xmlns="http://www.w3.org/2000/svg" xmlns:xlink="http://www.w3.org/1999/xlink">
<defs>
<linearGradient id="linearGradient2187">
<stop offset="0" stop-color="#fff"/>
<stop offset="1" stop-color="#fff" stop-opacity="0"/>
</linearGradient>
<linearGradient gradientTransform="matrix(-7.22891,-5.80752,-4.07729,5.07521,718.56416,349.71229)" gradientUnits="userSpaceOnUse" id="linearGradient5344" x2="0" y1="51.30047" y2="61.61814">
<stop offset="0" stop-color="#f1c40f"/>
<stop offset="1" stop-color="#f1c40f" stop-opacity="0"/>
</linearGradient>
<linearGradient gradientTransform="matrix(4.77828,-5.94777,8.47175,6.80598,164.18744,356.12801)" gradientUnits="userSpaceOnUse" id="linearGradient5348" x1="16.9021" x2="2.70535" xlink:href="#linearGradient2187" y1="12.17497" y2="14.08796"/>
<radialGradient cx="456.52063" cy="28.4981" gradientTransform="matrix(3.23476,.32925,-.04022,.39514,-1057.3713,94.40933)" gradientUnits="userSpaceOnUse" id="radialGradient5350" r="168.07478" xlink:href="#linearGradient2187"/>
</defs>
<g transform="matrix(.99029,.13902,-.13902,.99029,-139.68769,-286.23203)">
<path d="m210.33559,461.53722c-36.2351-167.18622 156.08778-289.92767 294.89316-178.84766l38.22627-47.58217 60.87664,170.71628-182.72286-19.04816 39.42081-49.06906c-99.2718-84.6457-231.1474-14.44723-250.69402,123.83077z" display="block" fill="url(#linearGradient5344)" stroke="url(#linearGradient5344)" stroke-width="7.76963"/>
<path d="m210.97396,429.60124c-7.92459-149.87254 170.71012-241.23862 297.29232-135.68379l33.02236-41.10459 51.5471,143.82348-154.32644-15.88885 33.75033-42.01075c-99.72226-89.17714-221.8251-32.55563-261.28567,90.8645z" display="block" fill="none" opacity=".6989" stroke="url(#linearGradient5348)" stroke-miterlimit="10" stroke-width="7.76963"/>
<path d="m542.6077,244.97785-4.34738,5.40485-30.63725,38.15704c-63.97251-51.06712-137.55007-55.82703-204.77729-24.01598-42.2373,19.98614-68.639,61.5633-68.639,61.5633 138.43273-132.93856 204.76547,26.08788 333.84614-10.05721z" display="block" fill="url(#radialGradient5350)" opacity=".6989"/>
</g>
</svg>
